<svg width="38" height="38" viewBox="0 0 38 38" fill="none" xmlns="http://www.w3.org/2000/svg">
<path d="M19 27.884C19.3807 28.1378 19.7774 28.3669 20.1875 28.5698V34.4375C20.1875 34.7525 20.0624 35.0545 19.8397 35.2772C19.617 35.4999 19.3149 35.625 19 35.625C18.6851 35.625 18.383 35.4999 18.1603 35.2772C17.9376 35.0545 17.8125 34.7525 17.8125 34.4375V28.5698C18.2226 28.3669 18.6193 28.1378 19 27.884ZM29.4055 9.29073C28.5464 7.23969 27.1004 5.48826 25.2491 4.25649C23.3977 3.02472 21.2237 2.36755 19 2.36755C16.7763 2.36755 14.6023 3.02472 12.7509 4.25649C10.8996 5.48826 9.45356 7.23969 8.59453 9.29073C6.73937 10.1387 5.1669 11.5018 4.06427 13.2178C2.96165 14.9339 2.37529 16.9306 2.375 18.9703C2.36016 24.6407 7.125 29.5391 12.7864 29.6875C14.5277 29.7289 16.2529 29.3453 17.8125 28.5698V23.2958L11.3436 20.0628C11.0617 19.9219 10.8474 19.6748 10.7477 19.3758C10.6481 19.0768 10.6712 18.7505 10.8122 18.4686C10.9531 18.1867 11.2003 17.9724 11.4992 17.8727C11.7982 17.7731 12.1245 17.7963 12.4064 17.9372L17.8125 20.6417V13.0625C17.8125 12.7476 17.9376 12.4455 18.1603 12.2228C18.383 12.0001 18.6851 11.875 19 11.875C19.3149 11.875 19.617 12.0001 19.8397 12.2228C20.0624 12.4455 20.1875 12.7476 20.1875 13.0625V17.0792L25.5936 14.3747C25.7332 14.3049 25.8851 14.2633 26.0408 14.2523C26.1964 14.2412 26.3527 14.2609 26.5008 14.3102C26.6488 14.3596 26.7857 14.4376 26.9035 14.5398C27.0214 14.6421 27.118 14.7665 27.1878 14.9061C27.2576 15.0457 27.2992 15.1976 27.3103 15.3533C27.3213 15.5089 27.3016 15.6652 27.2523 15.8133C27.2029 15.9613 27.1249 16.0982 27.0227 16.2161C26.9204 16.334 26.796 16.4306 26.6564 16.5003L20.1875 19.7333V28.5698C21.6638 29.3027 23.2893 29.6852 24.9375 29.6875H25.2077C30.875 29.5391 35.6413 24.6407 35.625 18.9703C35.6247 16.9306 35.0384 14.9339 33.9357 13.2178C32.8331 11.5018 31.2606 10.1387 29.4055 9.29073Z" fill="white"/>
</svg>
