<svg width="34" height="34" viewBox="0 0 34 34" fill="none" xmlns="http://www.w3.org/2000/svg">
<path d="M17 24.9489C17.3407 25.176 17.6956 25.3809 18.0625 25.5625V30.8126C18.0625 31.0944 17.9506 31.3646 17.7513 31.5639C17.5521 31.7632 17.2818 31.8751 17 31.8751C16.7182 31.8751 16.448 31.7632 16.2487 31.5639C16.0495 31.3646 15.9375 31.0944 15.9375 30.8126V25.5625C16.3045 25.3809 16.6594 25.176 17 24.9489ZM26.3102 8.31283C25.5416 6.47768 24.2478 4.91062 22.5913 3.80851C20.9349 2.7064 18.9896 2.11841 17 2.11841C15.0104 2.11841 13.0652 2.7064 11.4087 3.80851C9.75229 4.91062 8.45848 6.47768 7.68987 8.31283C6.02999 9.0715 4.62305 10.2911 3.63649 11.8265C2.64992 13.3619 2.12529 15.1485 2.12503 16.9735C2.11175 22.047 6.37503 26.4298 11.4405 26.5626C12.9985 26.5996 14.5421 26.2564 15.9375 25.5625V20.8437L10.1496 17.951C9.89736 17.8249 9.70558 17.6038 9.61641 17.3363C9.52724 17.0688 9.54799 16.7768 9.67409 16.5246C9.8002 16.2724 10.0213 16.0806 10.2888 15.9915C10.5563 15.9023 10.8483 15.9231 11.1005 16.0492L15.9375 18.469V11.6876C15.9375 11.4058 16.0495 11.1355 16.2487 10.9363C16.448 10.737 16.7182 10.6251 17 10.6251C17.2818 10.6251 17.5521 10.737 17.7513 10.9363C17.9506 11.1355 18.0625 11.4058 18.0625 11.6876V15.2815L22.8996 12.8617C23.0244 12.7992 23.1604 12.762 23.2997 12.7521C23.4389 12.7422 23.5788 12.7598 23.7112 12.804C23.8437 12.8481 23.9662 12.9179 24.0716 13.0094C24.1771 13.1009 24.2635 13.2122 24.326 13.3371C24.3884 13.462 24.4256 13.598 24.4355 13.7372C24.4454 13.8765 24.4278 14.0163 24.3837 14.1488C24.3395 14.2813 24.2697 14.4037 24.1782 14.5092C24.0867 14.6147 23.9754 14.7011 23.8505 14.7635L18.0625 17.6562V25.5625C19.3834 26.2182 20.8378 26.5605 22.3125 26.5626H22.5543C27.625 26.4298 31.8896 22.047 31.875 16.9735C31.8748 15.1485 31.3501 13.3619 30.3636 11.8265C29.377 10.2911 27.9701 9.0715 26.3102 8.31283Z" fill="#009933"/>
</svg>
